<?xml version="1.0" standalone="no"?><!DOCTYPE svg PUBLIC "-//W3C//DTD SVG 1.1//EN" "http://www.w3.org/Graphics/SVG/1.1/DTD/svg11.dtd"><svg t="1739931030707" class="icon" viewBox="0 0 1024 1024" version="1.1" xmlns="http://www.w3.org/2000/svg" p-id="17960" xmlns:xlink="http://www.w3.org/1999/xlink" width="200" height="200"><path d="M401.87904 661.87776h210.00192v230.00064H401.87904v-230.00064z" fill="#B6BDC6" p-id="17961"></path><path d="M586.88 686.87872v179.99872h-160v-179.99872h160m50.00192-49.9968H376.87808v230.00064H206.87872a25.0112 25.0112 0 0 0 0 50.03264h600.00256a25.02144 25.02144 0 0 0 0-50.03264h-169.99936v-230.00064z" fill="#5D5D5E" p-id="17962"></path><path d="M426.68032 776.27904h160v35.99872h-160v-35.99872z" fill="#8F969E" p-id="17963"></path><path d="M138.88 751.88224c-30.30016 0-54.99904-24.69888-54.99904-54.99904V176.88064c0-30.30016 24.69888-54.99904 54.99904-54.99904h736c30.30016 0 54.99904 24.69888 54.99904 54.99904V696.8832c0 30.30016-24.69888 54.99904-54.99904 54.99904H138.88z" fill="#8BECEF" p-id="17964"></path><path d="M874.88 146.88256c7.90016 0 15.40096 3.0976 21.09952 8.89856 5.69856 5.69856 8.89856 13.19936 8.89856 21.09952V696.8832a29.29664 29.29664 0 0 1-8.89856 21.09952c-5.69856 5.69856-13.19936 8.89856-21.09952 8.89856H138.88a29.33248 29.33248 0 0 1-21.09952-8.89856c-5.69856-5.66784-8.89856-13.19936-8.89856-21.09952V176.88064c0-7.90016 3.0976-15.40096 8.89856-21.09952 5.69856-5.69856 13.19936-8.89856 21.09952-8.89856h736m0-50.00192H138.88c-44.00128 0-80 35.99872-80 80V696.8832c0 44.032 35.99872 80 80 80h736c44.00128 0 80-35.968 80-80V176.88064c0-44.00128-35.99872-80-80-80z" fill="#3A3644" p-id="17965"></path><path d="M138.88 751.88224c-30.30016 0-54.99904-24.69888-54.99904-54.99904v-102.96832h845.99808v102.96832c0 30.30016-24.69888 54.99904-54.99904 54.99904H138.88z" fill="#E5E5E5" p-id="17966"></path><path d="M904.87808 618.88v77.99808a29.35296 29.35296 0 0 1-8.89856 21.09952c-5.69856 5.66784-13.19936 8.86784-21.09952 8.86784H138.88a29.42464 29.42464 0 0 1-21.09952-8.86784c-5.69856-5.69856-8.89856-13.19936-8.89856-21.09952v-77.99808h795.99616m50.00192-50.00192h-896v128c0 44.00128 35.99872 80 80 80h736c44.00128 0 80-35.99872 80-80v-128z" fill="#3A3644" p-id="17967"></path><path d="M739.84 722.77504m-259.41504 0a259.41504 259.41504 0 1 0 518.83008 0 259.41504 259.41504 0 1 0-518.83008 0Z" fill="#5A7BF2" p-id="17968"></path><path d="M988.9024 795.24864c-3.42016 0.09728-7.82336 1.6896-7.9104 2.83648-0.06656 1.19296-4.7616 3.28704-6.2976 3.92704-1.5616 0.61952-4.57216 5.4272-5.22752 6.99392-0.65024 1.5872-4.49024 1.11616-5.90848 1.7664-1.40288 0.60928-4.32128 2.95936-4.352 4.37248-0.01024 1.39264-0.78848 1.2544-1.7664-0.35328l-1.8432 1.96096-2.21696 2.44736c-1.26976 3.97824-5.48864 9.00096-6.92224 9.43104-1.44896 0.39424-1.69984 7.38304-1.69984 10.1632 0 2.8416 1.07008 6.30272 2.432 7.72096l0.29184 2.24256 0.48128 4.43904c-0.76288 3.4304 1.8432 6.5024 2.60608 7.11168 0.75264 0.57856 7.14752-1.14176 9.6-1.75104 1.00352-0.24064 2.27328-0.7936 3.48672-1.41312a256.90112 256.90112 0 0 0 26.60864-61.7472 5.81632 5.81632 0 0 0-1.36192-0.14848" fill="#7DBCF4" p-id="17969"></path><path d="M227.57888 146.88256h57.7024l179.3024 310.5024c5.49888 9.4976 2.2016 21.80096-7.30112 27.29984l-8.69888 5.00224c-9.4976 5.49888-21.80096 2.2016-27.29984-7.30112L227.57888 146.88256z m55.10144 295.3984c5.49888 9.4976 17.80224 12.8 27.29984 7.30112l8.69888-5.00224c9.4976-5.49888 12.8-17.80224 7.30112-27.29984L169.8816 146.88256h-31.0016c-9.7024 0-17.1008 4.59776-21.49888 9.09824l165.2992 286.30016z" fill="#CBEFEE" p-id="17970"></path><path d="M561.96608 801.86368c-0.35328 0.70656 4.24448 5.46304 6.05696 7.0656 1.79712 1.6384 5.59616 9.39008 6.37952 11.93984 0.75776 2.53952 0.3072 6.69696 0.06144 7.68512-0.2304 0.98304 0.86528 3.13344 1.03936 4.02944 0.16896 0.896-1.59232 8.51456-0.9216 11.5712 0.67072 3.06688-3.56864 12.60544-3.47136 17.3312 0.09216 4.75648 2.24256 10.93632 3.11808 10.47552 0.84992-0.47616 1.152 4.32128-0.30208 4.86912-1.44896 0.57344-3.11808 4.36224-2.30912 4.55168 0.80896 0.19968-0.0768 3.92704 0.16896 5.4272 0.19968 1.47968 1.45408 11.32032 1.7408 13.76256 0.2816 2.4576 3.75296 8.43264 4.51072 10.4704 0.73728 2.02752 1.47968 5.87264 1.76128 6.4512 0.29184 0.59904 0.65536 1.19808 0.70144 1.21856 0.07168 0.02048 2.87232 1.05984 3.70176 1.67936 0.83968 0.62464 6.35392 0.24064 8.17152-0.13824 1.81248-0.36864 0.14848-2.0224-0.68096-2.91328-0.8192-0.90624-1.54112-5.26336-2.45248-5.71904-0.93696-0.42496-1.34144-6.00576-0.52736-7.21408 0.8192-1.24928 4.13696-3.21024 4.50048-4.23936 0.34816-1.03936 0.45568-5.87776-0.44032-6.54336-0.89088-0.6656 0.27648-6.54336-0.39936-9.47712-0.68096-2.9184 5.0688-5.58592 5.4272-7.9104 0.31744-2.29888 6.54336-4.79744 7.936-5.9392 1.41312-1.1776 2.6624-7.80288 1.98144-9.23648-0.6912-1.42336 2.28864-2.59072 3.6096-2.59072s2.81088-0.9472 3.33824-0.9472c0.50176-0.02048 2.08384-2.94912 2.91328-3.63008 0.86016-0.67072 2.61632-7.69024 4.1472-8.83712 1.5616-1.16736 2.8416-5.4016 2.8416-6.6304 0-1.23392 2.35008-4.94592 3.12832-6.05184 0.77824-1.1264 6.56384-3.77344 7.6032-4.17792 1.04448-0.43008 2.6368-9.74336 3.02592-13.11744 0.37376-3.34848 2.13504-7.81824 2.27328-8.92416 0.10752-1.09568 1.9712-2.03264 2.304-2.39616 0.34816-0.34304 1.73056-4.608 2.6368-5.60128 0.896-0.96768 4.10112-5.03808 4.16256-5.94944 0.09728-0.91136 0.5632-3.24096 1.1008-5.1968l-0.02048-2.27328 0.03072-3.63008c-1.01376-2.7904-4.14208-6.3232-4.9408-5.53984-0.78848 0.76288-4.37248-2.48832-6.2208-3.17952-1.82784-0.68096-6.4-1.23904-7.552-1.23904-1.16224 0-5.16096-3.28192-6.95808-3.85024-1.78176-0.5632-6.33856-1.41824-7.16288-1.9712-0.83968-0.53248-1.97632-7.33696-5.64736-9.5488-3.69664-2.23744-10.1376-7.3984-10.84928-9.29792-0.70656-1.90976-7.7824-5.89824-9.96864-7.10144-2.17088-1.2032-5.46816-1.49504-5.87776-1.0496-0.42496 0.39936-3.13856-3.68128-4.54656-4.85888-1.41824-1.152-5.65248-2.10944-5.84704-1.09056-0.18944 1.05984-3.00032 0.512-3.6608-0.37888-0.66048-0.86528-2.85184 0.3584-3.87584 0.70144-1.024 0.3328-4.53632 5.69856-6.12352 6.98368-1.62304 1.28512-3.5584-1.18272-4.61312-1.65376-1.07008-0.45056-5.13536 0.7936-6.2464 1.59744-1.09056 0.77312-3.65056-5.6832-3.06176-8.6528 0.59904-2.99008-2.6624-8.9088-5.19168-9.05216-2.49856-0.14848-3.28192-6.37952-2.78528-8.66816s-4.56704-3.73248-5.81632-3.88608c-1.29024-0.16384-4.41856 3.05664-4.9664 4.60288-0.54272 1.5616-11.9808-2.10432-10.61376-8.95488 1.32096-6.87616 6.74304-13.96736 8.09984-14.81728 1.36192-0.8192 8.70912-1.23904 10.33216-0.32256 1.62816 0.95232 3.0976-0.02048 3.36896-0.41984 0.28672-0.44544 6.28736 0.04608 8.06912 0.78848 1.78688 0.72192 4.36224 7.64928 6.21056 8.4992 1.87904 0.8704 2.53952-4.46976 2.83136-5.78048 0.32256-1.29024-0.90112-4.5824-1.35168-5.50912-0.45056-0.92672 2.97984-9.3184 5.8112-10.75712 2.77504-1.4336 5.74976-6.10304 5.49888-6.93248-0.25088-0.80896 2.24768-1.4592 2.92864-1.8176 0.66048-0.32768-0.10752-7.13216 0.97792-8.62208 1.11616-1.4592 6.3744-4.57728 8.0384-5.26848 1.64864-0.71168 2.90816-5.00224 2.30912-5.7344-0.59904-0.77312 4.31104-4.95616 6.87104-5.76512 2.53952-0.77824 4.74624 1.46432 4.11648 1.82784 0.51712-0.29696 4.01408-2.0992 5.5296-3.08736 1.75104-1.17248 0.02048-4.36736-1.11616-5.29408-1.11104-0.91648-0.44032-4.59776 0.91648-4.95104 1.36704-0.32256 2.54464-3.52256 2.18624-4.18816-0.33792-0.70656 5.61152 0.53248 7.87968-1.14688 2.25792-1.6896 0.63488 4.0448-1.00864 6.35904-1.64864 2.29376 1.22368 4.50048 2.28352 4.0448 1.07008-0.4352 2.2272 1.2288 2.42688 1.87904 0.22016 0.64 2.52416-0.67072 4.03968-0.01024 1.48992 0.65024 2.3808-2.06848 2.49856-3.30752 0.10752-1.26976-3.57888-3.88096-4.16768-5.38112-0.57856-1.48992-0.82944-10.25536-0.9216-12.0576-0.06656-1.792-2.46784-4.7104-3.26656-4.1728-0.75264 0.50688-2.33984-4.66432-3.59424-5.79584-1.25952-1.12128-1.54624-3.59424-1.48992-4.4288 0.07168-0.82944-4.22912-5.31456-5.26848-7.39328-1.02912-2.06336-2.47808-1.64352-2.5856-0.69632-0.09216 0.94208-3.07712 1.0752-4.29056 0.96256-1.24416-0.11264-2.26304-4.85888-2.26304-6.66112 0-1.78176-5.51936-2.08896-6.44096-3.53792-0.90112-1.41312-4.5056-0.74752-5.07904-1.75104-0.58368-0.99328-3.77856-1.92-4.38784-1.55136-0.66048 0.37888-0.34816 13.23008-0.96256 16.71168-0.60928 3.46112-3.54816 6.50752-4.62848 6.43072-1.05984-0.08192-0.44032 2.4576 0.32256 2.24256 0.74752-0.25088-2.0992 3.7888-2.4576 6.43584-0.37376 2.62144-3.05152-0.11776-3.49184-2.5088-0.43008-2.3808-3.04128-5.63712-3.52256-4.80768-0.49664 0.8192-2.31936-0.97792-3.08736-0.47104-0.77824 0.512-5.72928-2.87232-7.72096-3.95264-1.98144-1.05472-3.10784-7.18336-4.25984-7.71584-1.14688-0.54784-0.16896-1.29536-0.22528-2.2016-0.03072-0.94208 3.8656-4.50048 5.04832-5.9136 1.17248-1.41312 5.44256-6.9632 7.15264-8.17664 1.69984-1.19808 3.01056-4.3776 2.72384-4.97152-0.3072-0.5888 7.2448-2.93888 9.30304-3.65056 2.02752-0.70656 3.7888-6.41024 4.07552-8.0384 0.29184-1.6384-1.28-4.74112-2.2272-5.15072-0.95744-0.39936 2.85696-0.54272 4.11136 0.08704 1.26976 0.62464 5.15584-1.15712 6.70208-0.34304 1.52576 0.83968 4.6336 2.66752 6.90176 4.09088l-0.512 4.17792-0.896 7.11168c-5.95456 2.46272-7.66464 6.71744-5.57568 6.65088 2.06848-0.11264 11.58656 4.10624 14.26944 6.02624 2.67776 1.92512 3.52256-2.78016 4.31616-4.36736 0.78336-1.54112 0.53248-6.09792-0.09728-6.9888-0.66048-0.91136 3.09248-0.5888 4.1472 0.43008 1.06496 0.98816 2.29376-1.0496 3.09248-1.41312 0.8192-0.3584 1.21856-4.26496 1.6384-5.05856 0.4608-0.78336-1.76128-1.58208-1.82784-2.52416-0.08192-1.00864-4.33664-2.85696-5.72928-3.51744-1.38752-0.66048-1.72032-3.61472-1.01376-4.13696 0.67072-0.512-0.47616-4.2496-1.16736-5.49376-0.68096-1.24416-5.14048-2.24768-6.6304-2.24768s-3.03104-3.46112-3.88096-3.94752c-0.86016-0.50176-6.60992-1.13152-7.99232-0.72192-1.42336 0.43008-4.00896-4.06016-6.4-2.67776-2.40128 1.3568-4.864-1.60768-5.9392-2.19136-1.1008-0.58368-6.71232 5.40672-6.64064 9.63072 0.06144 4.22912 2.17088 8.32 3.06176 8.44288 0.88064 0.10752-0.19968 3.92704-1.18784 5.0176-0.95232 1.0752-3.31264-1.16736-2.41664-2.11968 0.88576-0.96256-2.42688-5.38624-3.584-7.18848-0.80896-1.29024-3.72736-2.43712-5.69856-3.2256a245.9648 245.9648 0 0 0-3.38944 3.8144c0.44544 1.54112 0.95744 3.5328 0.4608 5.0432-0.83456 2.58048-2.98496 2.95936-3.11808 1.84832-0.06656-0.49664-1.152-0.8704-2.42688-1.03936-31.31904 37.57056-52.16256 84.11136-58.13248 135.14752 1.23904 1.42848 2.6624 3.0976 3.04128 4.32128 0.70656 2.27328 4.64384 3.7632 5.38112 4.224 0.73216 0.4608 1.01376-4.34688 0.47104-5.59616-0.49664-1.24416 0.96256-1.99168 0.92672-1.08032-0.04096 0.92672 3.71712 5.1456 4.95104 6.67648 1.22368 1.53088 2.49856 11.39712 3.69664 13.52704 1.16736 2.10432 12.54912 6.48192 16.22528 7.26016 3.65056 0.77312 8.27904 4.86912 9.0112 6.06208 0.69632 1.1776 5.56544 1.77664 6.59968 2.23744 1.05984 0.49664 3.56864 3.79392 4.60288 4.48512 1.00864 0.6912 1.82784 2.65216 1.82784 3.16928 0 0.512 6.44096 2.95936 8.00256 4.66432 1.55648 1.72544 4.12672 1.2544 4.608 0.53248 0.49664-0.73216 1.76128 3.40992 2.42688 4.83328 0.65024 1.42848 0.81408 4.94592 0.31744 5.51424-0.50688 0.5376-1.42848 7.0144-2.51904 8.30976-1.1008 1.3056-3.36896 10.68544-2.88256 12.53376 0.512 1.86368 3.51232 5.69344 4.80768 6.28224 1.31072 0.54784 0.74752 2.56-0.27648 2.70848-1.024 0.12288-0.54272 9.08288 1.8688 10.42432 2.43712 1.32096 4.4544 5.2992 4.11136 5.97504M592.39936 644.38784c-0.0768 0.03072-0.08704 0.04096 0 0M574.72 535.34208c3.09248-0.53248 8.24832-1.3824 8.59136-2.24256 0.27136-0.72192 0.30208-2.8416-0.28672-3.59936 0.48128 0.04096 1.06496 0.08192 1.51552 0.08192 1.16224 0 3.10784-6.46144 4.37248-7.9616 1.23904-1.50016 8.29952-3.73248 9.98912-4.74112 1.67936-1.01888 5.38112-4.56704 6.79936-4.992 1.39776-0.41984 3.4816-3.72736 3.16416-4.39296s4.80256-3.75296 6.72256-4.59264c1.94048-0.8192 2.92864-3.08224 2.21184-3.1744-0.4608-0.05632-11.26912 5.58592-21.14048 11.2128a260.3264 260.3264 0 0 0-31.8208 25.52832 135.38816 135.38816 0 0 0 9.8816-1.1264M761.71776 857.14944c3.30752-1.96096 8.92928-10.26048 10.77248-12.02176 1.85344-1.7408 3.2-8.04352 3.59424-9.41056 0.3584-1.37216 3.18464-3.59936 4.21888-3.90656 1.0496-0.3072 4.40832-14.2336 7.34208-17.28 2.95424-3.05152 6.41024-17.78688 6.0416-23.10144-0.37888-5.2736 1.87904-15.37536 2.58048-17.81248 0.71168-2.43712 4.39296-6.7328 5.55008-7.61856 1.14176-0.91136 8.23296-11.42272 10.53696-15.19104 2.27328-3.77344 4.48-12.05248 4.03968-13.99296-0.4352-1.93024-5.38624-3.28704-6.3232-2.33984-0.90112 0.96256-5.57568 1.76128-7.05536 1.76128-1.50016 0-4.91008-7.9872-7.03488-9.63584-2.10944-1.62816-4.02944-10.77248-5.248-12.48768-1.2032-1.75104-4.62848-6.10816-5.68832-7.12704-1.07008-1.00864-1.24416-5.85728-1.48992-7.17312-0.2304-1.32608 2.06848 0.88064 2.4576 2.80064 0.384 1.93024 5.86752 9.70752 7.56736 12.3392s6.144 10.97216 7.31136 13.58336c1.13664 2.62656 11.0592 1.28 14.29504-0.22016 3.23072-1.54624 7.25504-4.12672 7.3984-5.01248 0.14848-0.90624 5.28896-3.26144 6.72256-4.4032s2.69312-7.12704 3.61984-8.08448c0.9472-0.96256-0.74752-6.66112-1.8176-8.36096-1.07008-1.72032-6.2208-3.06176-7.2704-2.40128-1.03424 0.67072-3.28192-3.80928-4.06016-5.4528-0.77824-1.66912-4.73088-3.67104-5.16096-4.8128-0.4096-1.13152 1.07008-2.89792 1.67936-3.29728 0.62976-0.39936 7.90016 4.69504 9.98912 7.23968 2.07872 2.52416 4.49024 7.1936 4.88448 8.02304 0.384 0.79872 6.1184 1.20832 7.40864 0.26112 1.26976-0.93184 2.73408-0.68096 3.2512 0.5376l1.80736-0.32256 6.29248-0.96768c2.97984 3.22048 3.85536 6.01088 3.7632 6.67136-0.0512 0.61952 1.83808 3.24096 3.06176 3.52256 1.21856 0.30208 2.10944 4.40832 2.46784 5.43232 0.37888 1.01888 3.95264 7.18848 4.70016 9.7792s3.79904 7.66976 4.53632 9.02144c0.72704 1.37216 1.3312 5.28896 1.3312 6.36928 0 1.05984 2.29888 3.17952 3.73248 3.08736 1.41824-0.10752 4.32128-9.12384 5.00224-12.48256 0.66048-3.35872 2.97984-6.1184 3.64032-6.1184s1.17248-1.89952 1.17248-2.6112 3.67104-0.62976 3.98848-1.5616c0.30208-0.90624 1.38752-6.87616 2.67776-7.77216 1.31584-0.93184 5.92896-3.9424 7.552-4.51072 1.6128-0.55808 5.76 3.01056 6.69184 4.68992 0.92672 1.64352 1.78176 5.89312 1.408 6.58944-0.34816 0.6912 2.17088 4.352 4.4032 4.29056 2.19136-0.06656 2.87744 2.7904 2.93376 3.84 0.1024 1.01888 3.00032 3.97312 3.57888 5.28896 0.56832 1.3312 0.4096 4.92032 0.01024 5.74464-0.39936 0.8192-0.11264 5.53984 0.30208 6.86592 0.41984 1.3312 7.20896 8.20224 9.73824 10.2912 2.56 2.07872 3.74784-4.25984 2.44736-6.23104-1.3056-1.96608-5.73952-6.54848-6.784-7.9104-1.02912-1.38752-1.18784-6.8864-0.80896-8.4224 0.36864-1.54112 3.87072 0.86016 5.31968 1.96608 1.44896 1.11616 3.34848 3.58912 3.40992 4.41856 0.0512 0.82432 9.13408-4.27008 9.45152-9.79456 0.31744-5.54496 3.34848-11.76576 3.64032-13.21472 0.3072-1.46944-0.91136-3.46112-1.65888-3.51744-0.768-0.06656 1.34144-4.21888 3.91168-4.16256 2.53952 0.07168 8.66816-6.74816 10.13248-9.46176 1.44384-2.70848 4.37248-4.9408 4.71552-5.2992 0.32768-0.30208 2.37568-6.72256 2.72896-9.37984 0.3328-2.64192-1.48992-6.8096-1.73056-8.18176-0.20992-1.3568-2.40128-4.52096-2.9696-5.50912-0.55808-0.98816-1.1008-4.70016-0.768-5.41696 0.3584-0.67584 2.6624-1.40288 2.89792-2.0224 0.24576-0.63488 2.88256-3.44576 2.66752-4.66944-0.18944-1.24416 1.62304 1.60256 2.8416 2.62656 1.19808 1.01376 2.5088 7.6032 3.99872 8.34048 1.46944 0.72192 7.53152-6.9888 6.74816-11.97568-0.71168-4.97152 1.79712-11.3408 3.22048-11.91424 1.1008-0.43008 3.95776-4.44928 5.86752-7.34208a259.3792 259.3792 0 0 0-63.68256-100.37248 5.1968 5.1968 0 0 1-0.98816-0.04096l-2.21184-0.47104c-3.70176-0.77824-5.8624-4.7616-5.22752-5.6576 0.19968-0.29696 0.1536-0.96256-0.02048-1.7408a271.24224 271.24224 0 0 0-6.33856-5.50912c-1.7408-0.04096-3.584 0-4.67968-0.04096-2.23744-0.10752-7.04-1.66912-7.90016-2.53952-0.86016-0.86016-3.77344 0.77312-3.94752 2.37056-0.1792 1.6128-5.23776 2.36032-5.71904 3.57888-0.51712 1.21856-3.0976 1.31072-3.59936 0.60928-0.51712-0.67584-5.20704 1.65888-7.54688 2.01216-2.33984 0.31744-6.6816 2.21696-7.74144 2.67776-1.03936 0.4608-3.52256 2.88256-3.92704 3.88096-0.36864 1.01888-3.39968 2.67776-4.36224 3.07712-0.96256 0.37376-0.74752 4.74112 0.49152 5.37088 1.23392 0.58368-2.30912-0.53248-3.87584-1.34656-1.59744-0.78336-3.31264 1.84832-3.79904 2.76992-0.50176 0.91648-1.94048-0.53248-1.87392-1.83296s-3.86048-2.36032-4.37248-1.32096c-0.53248 1.03424-3.23584-0.33792-4.37248-0.9472-1.1264-0.59904-6.00064 4.48-7.79776 6.30272-1.81248 1.82272-10.42432 3.23584-12.05248 2.56-1.6128-0.69632-3.21024 3.80416-1.8176 4.11648 1.3824 0.27136-3.51232-0.2304-6.1696 0.03072-2.688 0.26112-10.51136 3.36896-12.34432 4.7616a2.01728 2.01728 0 0 1-3.36384-1.37728c0-1.06496-2.9696-2.05312-3.85024-2.3552-0.87552-0.29696-2.62144 5.85216-4.16256 7.02976-1.54112 1.18784-3.39968-4.80256-7.02976-5.78048-3.65056-0.97792-9.344-4.48-10.96192-4.90496-1.60256-0.4352-4.85888-3.83488-5.74976-4.79744-0.93184-1.00864-5.57056-1.81248-7.06048-1.81248-1.5104 0-6.30784 2.75456-7.61856 3.84512-1.31072 1.08032-3.24096 0.88064-3.88096 1.25952-0.66048 0.39936-6.0928 5.72928-8.19712 7.40864-2.11968 1.65376-5.81632 8.85248-7.00416 10.56256a4.864 4.864 0 0 1-3.6608 2.05824c-0.70144 0.0512-1.28 1.96096-1.28 2.66752s-6.25152 3.94752-6.90176 6.8096c-0.67072 2.83136 0.59904 9.3184 0.59904 11.62752s2.3296 6.87104 4.04992 6.94784c1.7408 0.08192 0.84992 3.90656 0.37888 4.98176-0.44032 1.1008 1.08032 2.2784 1.05984 3.18976-0.07168 0.9216-4.39808 2.21184-5.76 2.71872-1.34656 0.50176-3.5072 3.52256-3.79904 4.6592-0.2304 0.9728-4.41856 1.664-5.79072 3.01056 0.34304-0.95744 0.81408-2.2784 1.18272-3.0208 0.7936-1.52064-0.3072-4.16256-0.96256-4.70016-0.66048-0.55808-0.96256-8.06912-2.01728-9.68704-1.05472-1.60256-3.69664-4.33664-4.34688-4.87936-0.62976-0.51712 0.4608-2.50368 0.83968-3.34336 0.36352-0.8192-3.5072-1.31072-4.5824-0.70144-1.05472 0.61952-1.61792 8.05376-2.06848 10.10176-0.45056 2.03264 1.90976 5.16096 2.54976 5.30944 0.65024 0.1536 0.4608 3.8144-0.88576 3.94752-1.37728 0.11776-2.62656 5.46816-1.93024 6.69184 0.72704 1.22368-0.96256 3.6096-1.77152 4.17792-0.80896 0.5376 5.22752 0.24064 7.97696 0.15872 2.74944-0.08704 4.9152 1.16224 4.61312 1.38752-0.29696 0.24064-5.248 0.96256-6.14912 2.14016-0.87552 1.18272-4.27008 3.46624-4.93056 4.37248-0.65024 0.89088 1.12128 2.89792 2.56512 2.80064 1.408-0.07168 3.06176 4.9664 4.16256 5.89824 1.12128 0.94208 0.72192 3.5328 0.2304 4.27008-0.49664 0.70144-7.24992-0.4864-9.79968 0.13312-2.57024 0.63488-5.79072 6.05696-6.01088 8.0896-0.2304 2.04288 0.41984 7.91552 0.74752 9.53344 0.32256 1.6128 5.66784 2.63168 6.7584 3.4304 1.10592 0.78848 6.22592 0.02048 7.296 0.52224 1.03424 0.50176 4.52608-5.20192 5.20192-7.83872 0.67584-2.65216 6.12864-7.5008 7.28576-9.3184 1.13152-1.792 7.00928-1.57184 8.45824-2.51904 1.4592-0.9216 0.64512 4.47488 1.35168 7.4496 0.70144 2.9696 6.3232 2.59584 5.49888-0.18944-0.8192-2.7904 0.5376-4.00896 0.768-3.00544 0.24064 1.01376 5.66784 3.22048 6.69696 4.78208 1.01376 1.59744 0.72704 4.9152-0.47104 4.864-1.21344-0.04608-1.23904 3.65568 0.01536 4.05504 1.27488 0.38912 2.97472-4.15744 4.34176-4.83328 1.37216-0.68608 2.46784-3.52256 1.83808-3.7376-0.62464-0.21504 1.152-2.75456 1.92512-1.90976 0.76288 0.83968-2.88256-5.53472-5.20704-7.85408-2.28352-2.31424-0.67072-1.29536 3.64032 2.304l2.9696 4.16256c0.5632 0.74752 1.33632 3.0208 1.8432 3.85024l0.69632 1.23392c0.59904 1.4592 1.1008 5.44256 1.1008 6.54336 0 1.06496 2.33984 3.18976 3.7376 3.09248 1.42336-0.1024 2.50368 0.67072 2.21184 0.73728-0.29184 0.04096 0.93696 2.81088 2.33984 2.88256 1.408 0.03072 2.02752-3.58912 0.60928-3.66592-1.42848-0.0768-1.20832-5.33504-1.39776-7.6032-0.13824-2.29376 1.02912-4.15232 1.51552-4.15232 0.49664 0-0.05632 4.67456-0.01024 5.76 0.01024 1.08544 0.60416 3.22048 1.28 4.74112l1.44384 1.1008 3.2768 2.51904c4.67968-1.3824 10.9568-0.32256 10.71616 0.62976-0.25088 0.96256 3.47136 1.18784 3.69152-0.3584 0.2304-1.52064 0.38912 0.04608 0.38912 1.11616 0 1.04448-3.05664 5.24288-3.5584 7.16288-0.53248 1.93024-11.3408 0.62976-15.98976 0.26112-4.64384-0.33792-11.50976 1.24928-12.032 2.62656-0.52736 1.40288-7.7824-3.18976-11.10528-4.58752-3.33312-1.40288-5.94432-6.48192-6.62016-7.13728-0.70656-0.67584 0.55808-2.31424 0.256-3.31264-0.32256-1.00864-7.92064-1.2032-10.12736-0.38912-2.23744 0.80896-13.60896 2.02752-16.29696 3.18976-2.70848 1.20832-6.7584-0.0768-8.02304-0.29184-1.25952-0.22016-4.27008 3.49184-5.80608 4.16256-1.54112 0.68608-3.47136 5.94944-4.31104 11.74016l-2.07872 4.02944-1.34144 2.58048c-3.75296 2.85184-7.92064 12.41088-9.14944 14.32576-1.19296 1.8944-2.18112 15.66208-2.18112 20.29056 0 4.61312 4.01408 14.40256 5.16096 17.11104 1.13664 2.69824 8.12032 8.67328 10.44992 10.11712 2.3296 1.38752 9.9072 1.60256 12.3904 1.59232 2.47808-0.01024 5.30944-2.3808 6.27712-5.25824l3.63008 0.37888 1.6896 0.15872c0.08704 2.048 5.44256 3.67616 6.77888 4.3776 1.30048 0.7424 4.83328 0.16384 5.90336-0.128 1.02912-0.30208 2.2272 9.19552 1.4592 11.95008-0.75776 2.7392 1.87904 12.35456 2.63168 15.2576 0.77824 2.8928 4.08576 10.81856 4.40832 13.6704 0.32768 2.85696-1.92512 12.29824-2.29888 15.62112-0.37888 3.31264 4.12672 12.57984 5.30944 15.7696 1.17248 3.17952 2.14016 10.03008 2.14016 11.61216 0 1.60768 4.91008 11.18208 6.06208 15.12448 1.16736 3.99872 13.5168 4.96128 16.82432 3.01056M974.86848 739.75808c0.32768 0.70144 3.43552-1.75104 5.2992-2.03264 1.85856-0.3072 3.05664-5.30432 1.59744-5.65248-1.47456-0.39936-3.32288-4.21888-4.38272-4.7104-1.0496-0.47104-3.0976 1.65888-3.01056 3.17952 0.08704 1.5104-3.3792 2.12992-4.03968 3.39968-0.65024 1.23904-0.61952 2.17088 0.09728 2.04288 0.70144-0.12288 4.13184 3.08736 4.43904 3.77344M971.06944 766.90944c0.92672-0.33792-0.10752-5.26848-2.03776-5.69344-1.95072-0.384-7.296 6.50752-6.27712 10.496 1.01376 3.968 2.1248 3.73248 2.68288 2.88768 0.54784-0.82944 3.74272 0.54784 4.68992 0.86016 0.94208 0.32256 0.94208-0.65024 0-2.11968-0.93696-1.47456 0.02048-6.08256 0.94208-6.43072M960.50176 762.10176c0.22016-1.76128 0.54784-7.28064 0.84992-8.3712 0.31232-1.10592-3.01056-4.27008-4.62848-4.8384-1.60256-0.5632-6.83008 10.73664-10.56256 12.7488-3.74272 2.01216-5.10976 8.88832-4.13696 10.49088 1.00864 1.59744 8.80128 2.44736 10.15808 3.65056 1.38752 1.17248 2.88256-0.20992 3.712-0.4096 0.82944-0.18944 0.54784-0.72192 0.256-0.93696-0.3072-0.18432 2.7392-3.4048 3.16928-5.44256 0.41472-2.0224 0.94208-5.1456 1.18272-6.89152M939.24864 780.928c-2.92352-1.1008-6.36416 0.62976-6.65088 1.76128-0.28672 1.12128 11.2896 2.95936 15.11936 3.99872 3.81952 1.02912 6.2208 1.38752 5.3504 0.7424-0.88576-0.64512-10.89536-5.38624-13.81888-6.5024M962.70848 705.71008c0.9472-1.29024-1.29024-7.35232-2.40128-5.98016-1.1264 1.37216-0.3072 4.90496 0.0512 6.13376 0.35328 1.20832 1.42336 1.15712 2.35008-0.1536M969.7024 718.6944c0.66048-1.56672-0.8192-3.29728-3.32288-3.80416-2.51392-0.53248-2.14528 6.9888-1.03936 7.9616 1.05984 0.9472 3.69152-2.58048 4.36224-4.15744M982.70208 765.32224c3.01056 2.0992 9.69216 1.13152 9.86112-2.90816-2.93376-1.95584-10.112-1.62304-9.86112 2.90816M981.0944 673.0496c-1.25952 0.86016-1.8944 3.09248-1.5104 3.97824-0.18432 0-0.36352-0.02048-0.51712-0.02048-1.00864 0-1.12128 3.94752-0.07168 4.6336 1.01888 0.6656 3.54816-3.09248 4.87936-3.97312 1.32096-0.90112 3.97824-1.4336 4.36224-1.16224 0.41984 0.29184 2.71872-0.40448 5.19168-1.54624 0.41984-0.19968 0.9216-0.84992 1.43872-1.77664-0.57856-2.87232-1.26976-5.70368-1.95072-8.5504-1.25952 0.92672-2.65728 1.89952-3.29728 2.48832-1.3312 1.2032-6.89664 4.80768-8.5248 5.92896" fill="#7DBCF4" p-id="17971"></path><path d="M912.74752 752.41984s0.02048 0 0.04096 0.02048c-0.53248-0.38912-0.59392-0.41984-0.04096-0.02048M931.37408 769.792c-1.07008-2.46272-4.65408-6.60992-7.95648-9.22112l-1.24928-2.05824-1.37216-2.24256c-1.2288-2.4832-4.94592-4.39296-5.25824-5.1456-0.31232-0.72192-1.48992 2.16576-2.74944 1.32608 0.65536 0.4608 2.048 1.44896 3.98848 2.83648 3.47136 2.47296 10.1632 19.32288 11.69408 20.51072 1.52064 1.16224 3.97824-3.5584 2.90304-6.00576M877.98784 742.58944c-0.93184 1.88928 4.94592 5.9392 5.41184 5.00224 0.48128-0.92672-0.7424-5.60128-1.80224-6.62016-1.03936-1.024-2.6624-0.29184-3.6096 1.61792M799.89248 832.53248c0.2304 2.01216 4.29056 3.58912 5.44256 3.2768 1.19296-0.34304 4.46976-6.38464 4.95104-8.12544a41.78944 41.78944 0 0 0 0.82944-6.38976c0-0.89088 0.53248-2.89792 0.99328-3.14368 0.44032-0.2304 1.19808-2.29376 1.6384-4.56704 0.44032-2.29376-2.45248-12.90752-2.51904-14.78144-0.06144-1.84832-2.18112 0.96256-2.70336 2.85696-0.5632 1.88416-5.85728 5.72416-7.02976 7.35232-1.17248 1.59744-2.45248 7.0144-2.01728 7.95648 0.45056 0.93696-0.45056 4.61824-0.97792 5.66784-0.52736 1.00352 1.18272 7.8848 1.39264 9.89696M609.2544 906.02496h3.5328c0.64512-3.84512-3.72736-3.2-3.5328 0M704 505.94816c-1.48992 0.19456-5.34016-0.57344-5.9904-1.29024-0.68096-0.70144-6.46144-1.3312-8.13056-0.62464-1.66912 0.69632-0.52224-4.06528 1.80224-4.59264 2.32448-0.52736 0.34816-3.7888-2.10944-3.80416-2.47296-0.01024-8.576-0.91648-10.0096-0.60416-1.44896 0.31744-4.23936-0.99328-5.26336-1.14176-1.01888-0.15872-8.32 2.18624-11.79648 2.0224-3.47136-0.15872-11.9808 0.18944-13.80864 0.7168-1.86368 0.4864-3.18464 4.08064-2.92352 5.36064 0.25088 1.28512-8.23296 1.25952-10.9056 1.29024-2.67776 0.04096-16.93184 3.072-20.65408 5.12512-3.73248 2.04288-6.64064 7.27552-5.40672 7.38304 1.23904 0.1024-2.05312 3.05152-4.05504 3.74784-2.00704 0.6912-6.77888 0.9728-7.91552 2.11456-1.11104 1.13664 1.18784 1.88928 1.6384 2.65728 0.44032 0.73728 1.79712-0.66048 3.05152 0.07168 1.24928 0.70144 5.39648 1.0496 6.50752 1.46944 1.13664 0.42496-3.5328 1.31584-5.69344 1.46944-2.18624 0.13824-1.67936 4.41856 0.09216 5.02784 1.77152 0.57344 6.33856 1.2032 6.8096 0.47104 0.47104-0.74752 5.44256 0.79872 7.67488 1.08032 2.2272 0.24064 3.93216 5.84192 4.60288 7.04 0.70144 1.2288 0.82944 5.48864 0.67072 6.72256s3.94752 3.49184 4.68992 2.70848c0.73728-0.78848 0.53248 1.93024-1.1264 1.77664-1.64352-0.12288-0.5632 4.60288 1.46944 5.28384 2.02752 0.67584 0.61952 3.59424-0.53248 4.48-1.17248 0.89088-0.54272 3.6608-1.75104 4.66944-1.1776 0.97792 4.2496 10.4192 4.21888 15.26784-0.03584 4.83328 2.99008 8.80128 4.15232 8.80128 1.17248 0 5.14048 0.97792 5.66784 2.02752 0.53248 1.02912 2.45248-0.7168 3.21024-1.52576 0.7424-0.78848 2.37056-3.10784 3.58912-5.1712 1.23904-2.048 3.968-11.78112 4.34176-12.83072 0.36352-1.03936 4.93056-0.37888 5.96992-0.91136 1.01888-0.5376 4.03968-2.88768 4.86912-3.59936 0.85504-0.70144 7.36256-3.45088 9.14944-4.74112 1.78176-1.29024 4.74112-6.78912 6.1184-7.9872 1.3824-1.17248-0.72192-0.8192-2.4576-1.96608-1.72032-1.13152-0.96256-2.52416-0.44032-3.06176 0.49152-0.53248 5.74464 0.8704 7.552 1.57184 1.8176 0.72704 5.25824-1.78176 3.94752-2.75968-1.34144-0.94208-0.62976-0.9216 0-0.52224 0.63488 0.4096 1.29536-3.18976 0.61952-3.8656-0.6912-0.68608 5.30944-5.06368 4.25472-9.216-1.06496-4.14208 1.64352-8.39168 3.26656-8.42752 1.60256-0.06656 1.13152-4.68992-0.79872-5.12-1.94048-0.41984-0.10752-0.84992 0.60928-1.50016 0.72704-0.66048 1.62816-4.80256 1.21856-5.6064-0.44032-0.78336 2.93376-1.67936 3.52256-2.62656 0.61952-0.93184 4.49024-2.78528 5.85216-3.09248 1.36192-0.29696 2.08896-3.91168 0.62976-3.76832M737.68448 509.35296c-1.84832-0.64-5.57568 1.408-5.10976 2.55488 0.47616 1.1776-3.0464-1.47456-5.49376-0.20992-2.4576 1.28512-3.13856 5.59104-2.0224 6.15424 1.13664 0.56832 1.96096 3.98848 1.98656 4.64896 0.05632 0.67072 4.79744 0.18432 6.00064-0.79872 1.21344-1.00352 1.02912 3.4816-0.14336 4.68992-1.20832 1.18784 0.43008 3.61984 1.75104 3.81952 1.3312 0.1792 3.11808 3.30752 4.48 3.27168 1.34144-0.04096 3.6608-5.24288 4.17792-7.2192 0.54272-1.92512 5.06368-0.39424 7.14752 0.22528 2.048 0.60928 2.80576-7.17824 0.56832-8.37632-2.22208-1.17248-5.02784-0.58368-5.95968-1.47968-0.93184-0.90112-2.51904-1.7408-3.54816-1.88416-1.05472-0.16896-2.00704-4.79232-3.83488-5.39648M755.7376 513.08544c3.64032 0.52224 7.76192-2.4832 8.64256-3.33824 0.90112-0.84992-10.12224-3.0976-14.30016-3.21536-4.17792-0.13312-7.56224 0.44544-7.49568 1.26976 0.0512 0.79872 9.50784 4.75648 13.15328 5.28384M689.1776 611.74784c-0.96256-0.39936-1.48992 3.22048-1.24928 4.5824 0.19968 1.37216 3.5584 1.26464 4.992 1.01376 1.4336-0.256 2.53952-1.408 2.49856-2.59584-0.06144-1.17248-2.10944-6.55872-2.9184-6.55872-0.8192 0-2.35008 3.95264-3.32288 3.5584M699.99616 569.7792c-0.76288-1.32096-6.4768-1.16224-7.87456-1.23904-1.38752-0.08192-5.66272-1.50528-6.48192-2.42176-0.80896-0.90112-1.43872 3.52256-2.7392 4.11648-1.30048 0.5632 0.64512 1.40288 1.18784 0.93696 0.53248-0.4608-0.0512 2.2784-0.62976 3.23072-0.5888 0.95744 3.80928 1.60256 4.31104 3.0464 0.50176 1.41312 2.31936 2.33984 4.04992 2.05312 1.72032-0.29184 5.16608-2.05312 6.38464-2.17088 1.20832-0.14336 2.5344-6.23104 1.792-7.552M820.16256 537.02144c1.98144-1.99168 10.05056-4.63872 10.9824-6.6816 0.91136-2.02752-0.56832-3.70176-1.3824-3.70176-0.82944 0-1.83296 1.01888-2.02752 1.35168-0.20992 0.32768-9.49248 2.51904-12.33408 3.90144-2.84672 1.36192-6.15424 3.50208-7.34208 4.69504-1.20832 1.21344-3.16928 10.41408-3.8656 11.45344-0.68096 1.04448 3.06688 4.79232 4.76672 5.82656 1.66912 1.024 3.95264 0.49664 4.61312 0.29696 0.64-0.20992-0.8704-6.6304-1.75104-8.86784-0.86016-2.23744 6.37952-6.2976 8.34048-8.27392M810.23488 513.03936c3.05664 3.02592 4.73088-1.36192 8.09472-0.91648-0.08192-6.1696-8.40192-4.0448-8.09472 0.91648M869.632 514.18624c-0.1024 1.13664 8.42752 2.05312 10.94144 1.6128 2.48832-0.44032-0.52736-4.33152-4.16256-4.10624-3.65568 0.2304-6.69184 1.36192-6.77888 2.49344M560.26112 577.54112c-0.89088 0.8448-0.11776 5.03296 1.60256 5.15072 1.7152 0.128 4.44928-6.31296 6.53824-5.03296 2.0992 1.31072 3.5072 1.81248 3.16928 1.13152-0.3584-0.68096-6.31808-3.30752-7.04-3.7632-0.76288-0.47104-3.3536 1.70496-4.27008 2.51392M582.10816 719.4112c0 0.6912 3.73248 0.60928 4.34176-0.53248 0.5888-1.152 0.29184-2.0736-0.73216-2.0736-0.97792-0.00512-3.6096 1.88416-3.6096 2.60608M565.54496 713.28256c1.77664-0.32256 0.92672 2.54976 1.37728 3.57888 0.4096 1.04448 4.70016 1.87392 5.55008 2.58048 0.86016 0.68096 3.05664-1.32096 4.76672-1.10592 1.72032 0.21504-0.54784-5.9136-3.42016-5.7344-2.8672 0.1792-5.13536-2.60096-5.80608-2.9184a47.33952 47.33952 0 0 1-4.97152-3.11296c-0.92672-0.74752-8.23808-1.40288-10.72128-1.40288s-5.21216 2.54976-5.59104 3.36384c-0.38912 0.82432 3.93216 1.39776 5.16608 0.74752 1.23904-0.65024 7.0144 0.72192 8.20736 2.11968 1.18272 1.36704 3.63008 2.23744 5.44256 1.88416M557.75232 719.4112c0 0.6912 3.75808 0.26112 4.6592 0.29184 0.90112 0.03584 0.88064-0.59392-0.07168-1.37728-0.95232-0.74752-4.58752 0.36352-4.58752 1.08544M560.39424 700.05248c-0.96256-0.37888-1.7664 1.16736-1.7664 1.8688 0 0.72192 0.54272 1.3312 1.19296 1.3312 0.68096 0 1.5616-2.81088 0.57344-3.2M568.28928 700.66176c-0.32768-0.72192-1.95072-1.31584-2.432-1.31584-0.49664 0-0.8192 1.2544-0.74752 2.7648 0.08192 1.51552 3.49184-0.75264 3.17952-1.44896M573.96224 709.38624c1.53088-0.72192 1.71008-2.5344 0.80384-2.43712-0.91648 0.08192-2.57536-2.63168-3.56352-3.0208-0.96256-0.37888-1.7664 1.62816-1.7664 2.51904s0.55296 1.48992 1.21344 1.31072c0.67072-0.16896 1.78176 2.33984 3.31264 1.62816M994.0224 768.4608c-0.77824 0.40448-4.5824 0.8704-5.05856 0.11776-0.52224-0.74752-1.25952 1.53088-2.07872 1.87904-0.79872 0.38912-0.3584 2.37056 0.84992 1.76128 0.83456-0.42496 4.4288 1.58208 7.36256 3.39968 0.57344-2.88256 1.08032-5.79072 1.57184-8.71936-1.08032 0.54272-2.15552 1.30048-2.64704 1.5616" fill="#7DBCF4" p-id="17972"></path><path d="M609.2544 906.02496h3.5328c0.64512-3.84512-3.72736-3.2-3.5328 0M560.26112 577.54112c-0.89088 0.8448-0.11776 5.03296 1.60256 5.15072 1.7152 0.128 4.44928-6.31296 6.53824-5.03296 2.0992 1.31072 3.5072 1.81248 3.16928 1.13152-0.3584-0.68096-6.31808-3.30752-7.04-3.7632-0.76288-0.47104-3.3536 1.70496-4.27008 2.51392M582.10816 719.4112c0 0.6912 3.73248 0.60928 4.34176-0.53248 0.5888-1.152 0.29184-2.0736-0.73216-2.0736-0.97792-0.00512-3.6096 1.88416-3.6096 2.60608M565.54496 713.28256c1.77664-0.32256 0.92672 2.54976 1.37728 3.57888 0.4096 1.04448 4.70016 1.87392 5.55008 2.58048 0.86016 0.68096 3.05664-1.32096 4.76672-1.10592 1.72032 0.21504-0.54784-5.9136-3.42016-5.7344-2.8672 0.1792-5.13536-2.60096-5.80608-2.9184a47.33952 47.33952 0 0 1-4.97152-3.11296c-0.92672-0.74752-8.23808-1.40288-10.72128-1.40288s-5.21216 2.54976-5.59104 3.36384c-0.38912 0.82432 3.93216 1.39776 5.16608 0.74752 1.23904-0.65024 7.0144 0.72192 8.20736 2.11968 1.18272 1.36704 3.63008 2.23744 5.44256 1.88416M557.75232 719.4112c0 0.6912 3.75808 0.26112 4.6592 0.29184 0.90112 0.03584 0.88064-0.59392-0.07168-1.37728-0.95232-0.74752-4.58752 0.36352-4.58752 1.08544M560.39424 700.05248c-0.96256-0.37888-1.7664 1.16736-1.7664 1.8688 0 0.72192 0.54272 1.3312 1.19296 1.3312 0.68096 0 1.5616-2.81088 0.57344-3.2M568.28928 700.66176c-0.32768-0.72192-1.95072-1.31584-2.432-1.31584-0.49664 0-0.8192 1.2544-0.74752 2.7648 0.08192 1.51552 3.49184-0.75264 3.17952-1.44896M573.96224 709.38624c1.53088-0.72192 1.71008-2.5344 0.80384-2.43712-0.91648 0.08192-2.57536-2.63168-3.56352-3.0208-0.96256-0.37888-1.7664 1.62816-1.7664 2.51904s0.55296 1.48992 1.21344 1.31072c0.67072-0.16896 1.78176 2.33984 3.31264 1.62816M583.31136 530.07872c-0.25088-0.26112-1.32608 0.53248-0.83968 0.9984 0.22016 0.32256 1.26976-0.44544 0.83968-0.9984M611.968 615.42912c-0.22016-0.31232-1.32096 0.512-0.90112 1.01888 0.26112 0.29696 1.36192-0.50688 0.90112-1.01888" fill="#7DBCF4" p-id="17973"></path><path d="M590.93504 800.2816v-119.50592h88.61696v20.21376H615.0656v26.496h60.0064v20.13696h-60.0064v32.53248h66.7648v20.14208h-90.89536v-0.01536zM702.38208 800.2816v-119.50592h50.78016c12.76928 0 22.05696 1.07008 27.84256 3.22048 5.7856 2.14528 10.4192 5.9648 13.89568 11.44832 3.4816 5.48352 5.2224 11.77088 5.2224 18.83648 0 8.96512-2.64192 16.36864-7.9104 22.21056-5.26336 5.85216-13.14304 9.5232-23.63904 11.04384 5.22752 3.0464 9.52832 6.38976 12.91776 10.03008 3.39968 3.64032 7.98208 10.10688 13.74208 19.39968l14.59712 23.31648h-28.86144l-17.44384-25.99936c-6.1952-9.2928-10.42944-15.15008-12.70784-17.57184s-4.70016-4.08064-7.26016-4.97664c-2.54976-0.896-6.59968-1.34656-12.13952-1.34656h-4.89984v49.88928h-24.13568v0.00512z m24.12032-68.9664h17.85344c11.57632 0 18.80576-0.49152 21.6832-1.46432a12.98432 12.98432 0 0 0 6.7584-5.04832c1.62816-2.39104 2.45248-5.38112 2.45248-8.97024 0-4.0192-1.0752-7.2704-3.22048-9.73824s-5.18144-4.03456-9.088-4.6848c-1.95584-0.27648-7.81824-0.4096-17.60256-0.4096h-18.8416v30.31552zM822.85568 800.2816v-119.50592h38.72256c14.6688 0 24.22784 0.59392 28.69248 1.79712 6.85056 1.79712 12.58496 5.68832 17.2032 11.6992 4.61312 6.00064 6.92736 13.76256 6.92736 23.2704 0 7.34208-1.3312 13.51168-3.98848 18.50368-2.66752 5.00736-6.05184 8.92416-10.14272 11.78624-4.10624 2.85184-8.27392 4.74112-12.51328 5.6576-5.76 1.14176-14.10048 1.71008-25.02656 1.71008h-15.73376v45.0816h-24.1408z m24.13056-99.29216v33.90976h13.20448c9.50784 0 15.872-0.61952 19.08224-1.87392a15.872 15.872 0 0 0 7.54688-5.86752c1.81248-2.66752 2.72384-5.76 2.72384-9.2928 0-4.35712-1.28-7.936-3.82976-10.76736-2.55488-2.82112-5.79072-4.58752-9.7024-5.2992-2.88256-0.53248-8.66816-0.80896-17.36704-0.80896h-11.65824z" fill="#AA350C" p-id="17974"></path></svg>