<?xml version="1.0" standalone="no"?><!DOCTYPE svg PUBLIC "-//W3C//DTD SVG 1.1//EN" "http://www.w3.org/Graphics/SVG/1.1/DTD/svg11.dtd"><svg t="1744074034088" class="icon" viewBox="0 0 1024 1024" version="1.1" xmlns="http://www.w3.org/2000/svg" p-id="17228" xmlns:xlink="http://www.w3.org/1999/xlink" width="200" height="200"><path d="M391.168 571.392l11.776-11.776V432.128c0-11.264 4.096-21.504 10.752-29.696L445.44 363.52c6.144-7.68 15.872-12.8 26.624-12.8h249.344c-1.536-2.048-2.56-4.608-4.608-6.144l-32.256-38.912c-6.656-7.68-16.384-12.8-27.136-12.8H379.392c-10.752 0-20.48 5.12-26.624 12.8l-32.256 38.912c-6.656 8.192-10.752 18.432-10.752 29.696v290.304c0 25.6 20.992 46.592 46.592 46.592h46.592v-139.264h-11.776z m-13.312-255.488h278.528l21.504 23.04H358.912l18.944-23.04z" fill="#FFCB99" p-id="17229"></path><path d="M452.096 397.312h275.456V373.76H471.04zM594.432 519.168l52.224 52.224h-81.408V710.656h92.672v-81.408h69.632v-11.776L611.84 501.76z" fill="#FFCB99" p-id="17230"></path><path d="M657.92 710.656h23.04c25.6 0 46.592-20.992 46.592-46.592v-34.816h-69.632v81.408z" fill="#FF7E00" p-id="17231"></path><path d="M809.984 402.432l-32.256-38.912c-6.656-7.68-16.384-12.8-27.136-12.8H472.064c-10.752 0-20.48 5.12-26.624 12.8l-32.256 38.912c-6.656 8.192-10.752 18.432-10.752 29.696V722.432c0 25.6 20.992 46.592 46.592 46.592h325.12c25.6 0 46.592-20.992 46.592-46.592V432.128c0-11.264-4.096-21.504-10.752-29.696z m-82.432 226.816v34.816c0 25.6-20.992 46.592-46.592 46.592h-115.712V629.76H483.84l110.08-110.08 17.408-17.408 116.224 116.224 11.776 11.776h-11.776z m0-231.936H452.096L471.04 373.76h278.528l21.504 23.04h-43.52z" fill="#FF7E00" p-id="17232"></path><path d="M226.304 553.984h-29.696v-29.696c0-6.656-5.12-11.776-11.776-11.776s-11.776 5.12-11.776 11.776v29.696H143.36c-6.656 0-11.776 5.12-11.776 11.776s5.12 11.776 11.776 11.776h29.696v29.696c0 6.656 5.12 11.776 11.776 11.776s11.776-5.12 11.776-11.776v-29.696h29.696c6.656 0 11.776-5.12 11.776-11.776s-5.12-11.776-11.776-11.776zM811.52 195.584c14.848 14.848 10.24 33.792 6.656 47.616-3.584 13.824-4.096 20.48 0.512 25.6 5.12 5.12 11.264 4.096 25.6 0.512 13.824-3.584 32.768-8.192 47.616 6.656 14.848 14.848 10.24 33.28 6.656 47.104-3.584 13.824-4.608 20.48 0.512 25.6 4.608 4.608 4.608 11.776 0 16.384-4.608 4.608-11.776 4.608-16.384 0-14.848-14.848-10.24-33.28-6.656-47.104 3.584-13.824 4.608-20.48-0.512-25.6s-11.264-4.096-25.6-0.512c-13.824 3.584-32.768 8.192-47.104-6.656-14.848-14.848-10.24-33.792-6.656-47.616 3.584-13.824 4.608-20.48-0.512-25.6s-11.776-4.096-25.6-0.512c-13.824 3.584-32.768 8.192-47.616-6.656-4.608-4.608-4.608-11.776 0-16.384 4.608-4.608 11.776-4.608 16.384 0 5.12 5.12 11.264 4.096 25.6 0.512 13.312-3.072 32.256-7.68 47.104 6.656z" fill="#FFC879" p-id="17233"></path><path d="M878.08 652.8h65.536v65.536h-65.536zM230.4 386.048l34.816-35.328H195.584z" fill="#FFF7EC" p-id="17234"></path><path d="M330.752 773.12l-49.664-49.664c-3.584-3.584-9.216-3.584-12.8 0l-49.664 49.664c-3.584 3.584-3.584 9.216 0 12.8l49.664 49.664c3.584 3.584 9.216 3.584 12.8 0l49.664-49.664c3.584-3.072 3.584-9.216 0-12.8z m-56.32 43.52l-36.864-36.864 36.864-36.864 36.864 36.864-36.864 36.864z" fill="#FFC879" p-id="17235"></path></svg>