<?xml version="1.0" encoding="utf-8"?>
<!-- Generator: Adobe Illustrator 26.0.1, SVG Export Plug-In . SVG Version: 6.00 Build 0)  -->
<svg version="1.1" id="图层_1" xmlns="http://www.w3.org/2000/svg" xmlns:xlink="http://www.w3.org/1999/xlink" x="0px" y="0px"
	 viewBox="0 0 200 200" enable-background="new 0 0 200 200" xml:space="preserve">
<path fill="#FFCB99" d="M65.6,114.1l2.8-2.8v-30c0-2.6,1-5.1,2.5-7l7.5-9.2c1.4-1.8,3.7-3,6.3-3h58.6c-0.4-0.5-0.6-1.1-1.1-1.4
	l-7.6-9.2c-1.6-1.8-3.9-3-6.4-3H62.8c-2.5,0-4.8,1.2-6.3,3l-7.6,9.2c-1.6,1.9-2.5,4.3-2.5,7V136c0,6,4.9,11,11,11h11v-32.8h-2.8
	V114.1z M62.4,54h65.5l5.1,5.4H58L62.4,54z"/>
<path fill="#FFCB99" d="M79.9,73.1h64.8v-5.5H84.3L79.9,73.1z M113.4,101.8l12.3,12.3h-19.1v32.8h21.8v-19.1h16.4v-2.8l-27.2-27.2
	L113.4,101.8z"/>
<path fill="#FF7E00" d="M128.3,146.8h5.4c6,0,11-4.9,11-11v-8.2h-16.4L128.3,146.8L128.3,146.8z"/>
<path fill="#FF7E00" d="M164.1,74.3l-7.6-9.2c-1.6-1.8-3.9-3-6.4-3H84.6c-2.5,0-4.8,1.2-6.3,3l-7.6,9.2c-1.6,1.9-2.5,4.3-2.5,7v68.3
	c0,6,4.9,11,11,11h76.5c6,0,11-4.9,11-11V81.3C166.6,78.7,165.6,76.2,164.1,74.3L164.1,74.3z M144.7,127.7v8.2c0,6-4.9,11-11,11
	h-27.2v-19H87.4l25.9-25.9l4.1-4.1l27.3,27.3l2.8,2.8h-2.8V127.7z M144.7,73.1H79.9l4.5-5.5h65.5l5.1,5.4h-10.2V73.1z"/>
<path fill="#FFC879" d="M26.8,110h-7v-7c0-1.6-1.2-2.8-2.8-2.8s-2.8,1.2-2.8,2.8v7h-7c-1.6,0-2.8,1.2-2.8,2.8c0,1.6,1.2,2.8,2.8,2.8
	h7v7c0,1.6,1.2,2.8,2.8,2.8s2.8-1.2,2.8-2.8v-7h7c1.6,0,2.8-1.2,2.8-2.8C29.5,111.2,28.3,110,26.8,110z M173.2,7.9
	c3.5,3.5,2.4,7.9,1.6,11.2s-1,4.8,0.1,6c1.2,1.2,2.6,1,6,0.1c3.3-0.8,7.7-1.9,11.2,1.6s2.4,7.8,1.6,11.1s-1.1,4.8,0.1,6
	c1.1,1.1,1.1,2.8,0,3.9c-1.1,1.1-2.8,1.1-3.9,0c-3.5-3.5-2.4-7.8-1.6-11.1s1.1-4.8-0.1-6s-2.6-1-6-0.1c-3.3,0.8-7.7,1.9-11.1-1.6
	c-3.5-3.5-2.4-7.9-1.6-11.2s1.1-4.8-0.1-6s-2.8-1-6-0.1c-3.3,0.8-7.7,1.9-11.2-1.6c-1.1-1.1-1.1-2.8,0-3.9s2.8-1.1,3.9,0
	c1.2,1.2,2.6,1,6,0.1C165.3,5.6,169.7,4.5,173.2,7.9z"/>
<path fill="#FFF7EC" d="M180.1,152.8h15.4v15.4h-15.4V152.8z M31.7,56.9l8.2-8.3H23.5L31.7,56.9z"/>
<path fill="#FFC879" d="M56.6,177.8l-11.7-11.7c-0.8-0.8-2.2-0.8-3,0l-11.7,11.7c-0.8,0.8-0.8,2.2,0,3l11.7,11.7
	c0.8,0.8,2.2,0.8,3,0l11.7-11.7C57.4,180.1,57.4,178.6,56.6,177.8z M43.3,188l-8.7-8.7l8.7-8.7l8.7,8.7L43.3,188z"/>
</svg>
